<svg xmlns="http://www.w3.org/2000/svg" width="138.125" height="22.781" viewBox="0 0 138.125 22.781">
  <defs>
    <style>
      .cls-1 {
        fill: #fff;
        fill-rule: evenodd;
      }
    </style>
  </defs>
  <path id="Milastask" class="cls-1" d="M394.105,34.259q-8.244,13.008-8.244,16.436a4.817,4.817,0,0,0,.518,2.39,1.532,1.532,0,0,0,1.345.914q0.9,0,2.5-3.059,1.582-3.041,2.953-5.221,3.428-5.485,6.082-8.894a23.152,23.152,0,0,1,4.535-4.711q-1.16,1.723-3.076,4.553-2.549,3.762-3.2,4.817a39.451,39.451,0,0,0-2.892,5.493,10.414,10.414,0,0,0-.852,3.788,3.882,3.882,0,0,0,.685,2.39,2.123,2.123,0,0,0,1.776.914q1.494,0,5.22-3.779l0.071-.07q0.615-.615,1.7-1.758a26.633,26.633,0,0,1,4.763-4.254,0.729,0.729,0,0,1-.123-0.017,2.242,2.242,0,0,0-.263-0.053,4.041,4.041,0,0,0-1.828,1.09q-1.318,1.09-3.762,3.516-2.532,2.531-3.516,3.392a3.16,3.16,0,0,1-1.3.861,0.32,0.32,0,0,1-.238-0.132,0.455,0.455,0,0,1-.114-0.308,12.648,12.648,0,0,1,.659-3.173q0.66-2.188,2.066-5.9,1.529-3.938,3.269-7.814t1.74-4.034a0.278,0.278,0,0,0-.123-0.22,0.5,0.5,0,0,0-.316-0.1q-1.319,0-6.126,6.3a108.236,108.236,0,0,0-9.448,15.091,20.958,20.958,0,0,1,1.248-4.474q1.107-3.05,4.078-10.046,0.264-.65.756-1.811a24.709,24.709,0,0,0,1.722-4.658,0.378,0.378,0,0,0-.123-0.29,0.445,0.445,0,0,0-.316-0.114q-0.79,0-3.331,3.015a98.752,98.752,0,0,0-5.986,8.112q-1.036,1.529-2.724,4.184-4.377,6.909-6.891,6.908a2.607,2.607,0,0,1-1.529-.466A1.263,1.263,0,0,1,374.8,52.1a1.19,1.19,0,0,1,.413-0.941,2.776,2.776,0,0,1,1.275-.536,3.2,3.2,0,0,0,1.529-.633,1.5,1.5,0,0,0,.386-1.107,1.633,1.633,0,0,0-.439-1.222,1.761,1.761,0,0,0-1.283-.431,2.71,2.71,0,0,0-2.127,1.055,3.8,3.8,0,0,0-.9,2.549,3.056,3.056,0,0,0,.967,2.32,3.463,3.463,0,0,0,2.479.914q2.952,0,7.013-6.469,0.37-.562.545-0.861,3.691-5.871,6.513-9.686a25.232,25.232,0,0,1,4.228-4.834Zm16.312,5.9a1.549,1.549,0,0,0,1.116.378,1.839,1.839,0,0,0,1.336-.554,1.777,1.777,0,0,0,.563-1.309,1.361,1.361,0,0,0-.4-1.02,1.432,1.432,0,0,0-1.046-.387,1.952,1.952,0,0,0-1.362.562,1.7,1.7,0,0,0-.607,1.266A1.4,1.4,0,0,0,410.417,40.157Zm-4.263,6.214q-2.3,3.973-2.3,5.4a2.377,2.377,0,0,0,.572,1.7,2.08,2.08,0,0,0,1.591.606,4.544,4.544,0,0,0,2.469-.879,26.269,26.269,0,0,0,3.718-3.322q0.563-.58,1.582-1.652a22.742,22.742,0,0,1,4.483-4.008,0.73,0.73,0,0,1-.141-0.017,2.238,2.238,0,0,0-.264-0.053,3.5,3.5,0,0,0-1.7.976q-1.178.975-4.412,4.245a37.4,37.4,0,0,1-3.1,2.892,3.811,3.811,0,0,1-1.732.993,0.3,0.3,0,0,1-.316-0.316,4,4,0,0,1,.43-1.125q0.43-.9,1.257-2.408l3.639-6.662L408.176,43a23.293,23.293,0,0,1-1.6,1.74l-0.193.193-1.16,1.16c-0.2.188-.457,0.428-0.774,0.721a1.782,1.782,0,0,0-.668.791,0.14,0.14,0,0,0,.088.132,0.561,0.561,0,0,0,.246.044,2.966,2.966,0,0,0,.914-0.756q0.387-.387.633-0.615l1.072-1.037q-0.193.352-.58,1h0Zm8.894,2.8a6.9,6.9,0,0,0-.641,2.461,2.447,2.447,0,0,0,.641,1.784,2.305,2.305,0,0,0,1.732.659q1.758,0,6.117-4.535,0.615-.633.949-0.984,0.176-.176.545-0.563a21.917,21.917,0,0,1,4.307-3.779,0.7,0.7,0,0,1-.123-0.017,1.9,1.9,0,0,0-.281-0.053,3.5,3.5,0,0,0-1.626.923q-1.152.923-3.367,3.1l-1.318,1.319q-3.744,3.727-4.482,3.726a0.552,0.552,0,0,1-.4-0.141,0.461,0.461,0,0,1-.149-0.351,13.993,13.993,0,0,1,1.634-3.41q0.827-1.494,1.319-2.391l7.7-14.185-3.445.386-5.7,9.3q-0.369.545-.9,1.2t-1.16,1.319l-0.9.932q-0.3.316-.756,0.773a3.013,3.013,0,0,0-.791.967,0.271,0.271,0,0,0,.282.281,4.812,4.812,0,0,0,1.494-1.266q0.772-.791,1.283-1.283A33.022,33.022,0,0,0,415.048,49.166Zm18.7-2.013a26.146,26.146,0,0,1-2.478,3.331,13.78,13.78,0,0,1-2.356,2.25,3.519,3.519,0,0,1-1.916.809,0.739,0.739,0,0,1-.554-0.176,0.769,0.769,0,0,1-.166-0.545,4.792,4.792,0,0,1,.685-2.065,30.1,30.1,0,0,1,2.18-3.349,22.018,22.018,0,0,1,2.443-2.936,2.773,2.773,0,0,1,1.67-.949,1.355,1.355,0,0,1,1.011.4,1.424,1.424,0,0,1,.4,1.037A5.112,5.112,0,0,1,433.751,47.153Zm0.642-3.92a3.105,3.105,0,0,0-1.855-.5,6.544,6.544,0,0,0-2.636.642,15.244,15.244,0,0,0-3.059,1.89,9.209,9.209,0,0,0-2.391,2.628,5.871,5.871,0,0,0-.773,2.944,3.136,3.136,0,0,0,.879,2.32,3.089,3.089,0,0,0,2.285.879A4.682,4.682,0,0,0,429.594,53a12.578,12.578,0,0,0,2.8-3.059,4.769,4.769,0,0,0-.361,1A4.669,4.669,0,0,0,431.923,52a1.981,1.981,0,0,0,.6,1.5,2.169,2.169,0,0,0,1.564.572q1.846,0,5.238-3.445,0.685-.7,1.055-1.09,0.51-.491,1.406-1.388a25.411,25.411,0,0,1,4.43-3.867,0.716,0.716,0,0,1-.123-0.018,2.267,2.267,0,0,0-.264-0.053,3.9,3.9,0,0,0-1.81,1.037q-1.284,1.037-3.709,3.428-0.44.457-1.248,1.248-3.2,3.182-3.709,3.182a0.365,0.365,0,0,1-.29-0.132,0.5,0.5,0,0,1-.115-0.343,3.317,3.317,0,0,1,.282-0.756q0.281-.633.738-1.547l3.691-7.594L436.142,43l-0.862,1.723A2.288,2.288,0,0,0,434.393,43.233Zm11.531,2.276a14.768,14.768,0,0,1-.87,5.572q-0.87,2.092-2.294,2.092a1.4,1.4,0,0,1-.624-0.141,1.781,1.781,0,0,1-.554-0.439,1.294,1.294,0,0,0,.22.053,1.834,1.834,0,0,0,.272.017,1,1,0,0,0,.747-0.378,1.213,1.213,0,0,0,.343-0.835,1.356,1.356,0,0,0-.343-0.976,1.214,1.214,0,0,0-.923-0.36,1.478,1.478,0,0,0-1.1.457,1.544,1.544,0,0,0-.449,1.125,2.087,2.087,0,0,0,.923,1.7,3.647,3.647,0,0,0,2.277.7,6.743,6.743,0,0,0,3.392-.958,28.613,28.613,0,0,0,4.922-4.175q0.492-.492,1.389-1.424a19.563,19.563,0,0,1,3.867-3.34q0.071-.105.114-0.158A0.117,0.117,0,0,1,457.314,44a0.982,0.982,0,0,1-.58.141q-0.756,0-3.753,2.857t-5.212,4.6a5.55,5.55,0,0,0,.976-1.45,3.781,3.781,0,0,0,.29-1.5,5.675,5.675,0,0,0-.993-3.2,6.119,6.119,0,0,1-.993-1.811,1.468,1.468,0,0,1,.465-0.888,1.771,1.771,0,0,0,.466-0.659,0.362,0.362,0,0,0-.131-0.264,0.419,0.419,0,0,0-.291-0.123,1.127,1.127,0,0,0-.738.721q-0.194.351-.316,0.545a14.767,14.767,0,0,1-1.565,1.617q-0.333.316-.527,0.492l-1.072,1.02q-0.229.211-.6,0.545a2.579,2.579,0,0,0-.809.967,0.272,0.272,0,0,0,.282.281,4.693,4.693,0,0,0,1.424-1.248,15.047,15.047,0,0,1,2.285-2.021v0.9Zm9.307,1.125q-1.845,3.639-1.846,4.957a2.6,2.6,0,0,0,.58,1.793,2.056,2.056,0,0,0,1.618.65q1.827,0,5.8-3.973l0.282-.264q0.667-.668,1.845-1.881a22.5,22.5,0,0,1,4.237-3.709,0.7,0.7,0,0,1-.123-0.017,1.9,1.9,0,0,0-.282-0.053q-0.843,0-5.519,4.553l-0.4.422q-2.319,2.251-3.462,3.173a3.536,3.536,0,0,1-1.582.923,0.53,0.53,0,0,1-.317-0.088,0.269,0.269,0,0,1-.123-0.229,8.149,8.149,0,0,1,.853-2.452,47.533,47.533,0,0,1,2.241-4.245l4.254-7.313H466.2l0.211-.826H463.9l2.689-4.606-3.621.141-4.078,6.732q-0.071.123-.246,0.4a20.933,20.933,0,0,1-3.129,4.166l-1.019,1a11.442,11.442,0,0,1-.9.827,2.166,2.166,0,0,0-.756.879,0.271,0.271,0,0,0,.282.281,4.812,4.812,0,0,0,1.494-1.266q0.772-.791,1.283-1.283-0.228.458-.668,1.3h0Zm17.586,0.519a26.146,26.146,0,0,1-2.478,3.331,13.743,13.743,0,0,1-2.356,2.25,3.517,3.517,0,0,1-1.915.809,0.737,0.737,0,0,1-.554-0.176,0.764,0.764,0,0,1-.167-0.545,4.792,4.792,0,0,1,.685-2.065,30.1,30.1,0,0,1,2.18-3.349,22.018,22.018,0,0,1,2.443-2.936,2.776,2.776,0,0,1,1.67-.949,1.355,1.355,0,0,1,1.011.4,1.42,1.42,0,0,1,.4,1.037A5.1,5.1,0,0,1,472.817,47.153Zm0.642-3.92a3.1,3.1,0,0,0-1.854-.5,6.552,6.552,0,0,0-2.637.642,15.244,15.244,0,0,0-3.059,1.89,9.189,9.189,0,0,0-2.39,2.628,5.861,5.861,0,0,0-.774,2.944,3.136,3.136,0,0,0,.879,2.32,3.091,3.091,0,0,0,2.285.879A4.677,4.677,0,0,0,468.66,53a12.558,12.558,0,0,0,2.8-3.059,4.821,4.821,0,0,0-.36,1A4.612,4.612,0,0,0,470.989,52a1.985,1.985,0,0,0,.6,1.5,2.17,2.17,0,0,0,1.565.572q1.845,0,5.238-3.445,0.685-.7,1.055-1.09,0.508-.491,1.406-1.388a25.418,25.418,0,0,1,4.429-3.867,0.729,0.729,0,0,1-.123-0.018,2.316,2.316,0,0,0-.263-0.053,3.9,3.9,0,0,0-1.811,1.037q-1.283,1.037-3.709,3.428-0.44.457-1.248,1.248-3.2,3.182-3.709,3.182a0.366,0.366,0,0,1-.29-0.132,0.505,0.505,0,0,1-.114-0.343,3.343,3.343,0,0,1,.281-0.756q0.281-.633.738-1.547l3.692-7.594L475.208,43l-0.861,1.723A2.289,2.289,0,0,0,473.459,43.233ZM484.99,45.51a14.768,14.768,0,0,1-.87,5.572q-0.87,2.092-2.294,2.092a1.4,1.4,0,0,1-.624-0.141,1.792,1.792,0,0,1-.554-0.439,1.342,1.342,0,0,0,.22.053,1.834,1.834,0,0,0,.272.017,1,1,0,0,0,.747-0.378,1.213,1.213,0,0,0,.343-0.835,1.356,1.356,0,0,0-.343-0.976,1.213,1.213,0,0,0-.922-0.36,1.48,1.48,0,0,0-1.1.457,1.544,1.544,0,0,0-.448,1.125,2.084,2.084,0,0,0,.923,1.7,3.644,3.644,0,0,0,2.276.7,6.749,6.749,0,0,0,3.393-.958,28.617,28.617,0,0,0,4.921-4.175q0.492-.492,1.389-1.424a19.563,19.563,0,0,1,3.867-3.34,1.777,1.777,0,0,1,.115-0.158A0.115,0.115,0,0,1,496.381,44a0.984,0.984,0,0,1-.58.141q-0.756,0-3.753,2.857t-5.212,4.6a5.544,5.544,0,0,0,.975-1.45,3.764,3.764,0,0,0,.29-1.5,5.675,5.675,0,0,0-.993-3.2,6.119,6.119,0,0,1-.993-1.811,1.465,1.465,0,0,1,.466-0.888,1.784,1.784,0,0,0,.466-0.659,0.36,0.36,0,0,0-.132-0.264,0.418,0.418,0,0,0-.29-0.123,1.126,1.126,0,0,0-.739.721q-0.194.351-.316,0.545a14.822,14.822,0,0,1-1.564,1.617q-0.334.316-.528,0.492l-1.072,1.02c-0.152.141-.352,0.322-0.6,0.545A2.57,2.57,0,0,0,481,47.6a0.271,0.271,0,0,0,.281.281,4.68,4.68,0,0,0,1.424-1.248,15.1,15.1,0,0,1,2.285-2.021v0.9Zm16.971-.369a2.89,2.89,0,0,1,1.213-1.424,1.908,1.908,0,0,1,.22.009,0.2,0.2,0,0,1,.114.062,1.077,1.077,0,0,0-.334.413,1.268,1.268,0,0,0-.1.519,1.285,1.285,0,0,0,.386.958,1.35,1.35,0,0,0,.985.378,1.415,1.415,0,0,0,1.476-1.477,1.684,1.684,0,0,0-.562-1.292,2.021,2.021,0,0,0-1.424-.519,3.008,3.008,0,0,0-2.382,1.732,8.436,8.436,0,0,1-1.591,2.065,2.835,2.835,0,0,1-1.318.317q-0.967.07-.967,0.457a0.39,0.39,0,0,0,.115.29,0.369,0.369,0,0,0,.272.114,3.469,3.469,0,0,0,.747-0.123,3.486,3.486,0,0,1,.73-0.123,0.5,0.5,0,0,1,.316.1,0.308,0.308,0,0,1,.123.255,6.552,6.552,0,0,1-.861,1.855,5.437,5.437,0,0,0-.862,2.5,1.908,1.908,0,0,0,.475,1.353,1.624,1.624,0,0,0,1.248.51q1.793,0,5.186-3.657,0.474-.492.72-0.773,2.391-2.548,3.692-3.736a12.692,12.692,0,0,1,2.215-1.7,0.73,0.73,0,0,1-.141-0.017,1.584,1.584,0,0,0-.264-0.053,4.058,4.058,0,0,0-1.854,1.081q-1.327,1.081-4.052,3.788-0.544.545-1.459,1.477a8.372,8.372,0,0,1-2.057,1.828,0.346,0.346,0,0,1-.219-0.061,0.182,0.182,0,0,1-.079-0.149,1.627,1.627,0,0,1,.158-0.44,5.97,5.97,0,0,0,.527-2.3,2.245,2.245,0,0,0-.571-1.573,2.368,2.368,0,0,0-1.556-.729A5.229,5.229,0,0,0,501.961,45.14Zm-11.742,8.93,3.5-.246L504.756,32.73l-3.375.351-5.431,9.861a7.226,7.226,0,0,1-.58.835,12.016,12.016,0,0,1-1.02,1.151l-0.9.932q-0.3.316-.756,0.773a3,3,0,0,0-.791.967,0.271,0.271,0,0,0,.281.281,4.788,4.788,0,0,0,1.494-1.266q0.774-.791,1.283-1.283Z" transform="translate(-373.656 -31.313)"/>
</svg>
